{"accessors": [{"bufferView": 2, "componentType": 5126, "count": 10512, "max": [0.6745210289955139, 0.6734570264816284, 1.8326648473739624], "min": [-0.6745210289955139, -0.5541809797286987, -0.00563699658960104], "type": "VEC3"}, {"bufferView": 2, "byteOffset": 126144, "componentType": 5126, "count": 10512, "max": [0.9996395111083984, 0.9999932646751404, 0.9991892576217651], "min": [-0.9991130232810974, -0.9999681115150452, -0.9999876618385315], "type": "VEC3"}, {"bufferView": 1, "componentType": 5126, "count": 10512, "max": [0.9897000193595886, 0.9926999807357788], "min": [0.0020000000949949026, 0.006099998950958252], "type": "VEC2"}, {"bufferView": 0, "componentType": 5125, "count": 24192, "type": "SCALAR"}], "asset": {"extras": {"author": "The Mangle (https://sketchfab.com/pizzapizza)", "license": "CC-BY-4.0 (http://creativecommons.org/licenses/by/4.0/)", "source": "https://sketchfab.com/3d-models/iron-throne-19840e7ca3b840218e51a58ed701a27a", "title": "Iron Throne"}, "generator": "Sketchfab-12.65.0", "version": "2.0"}, "bufferViews": [{"buffer": 0, "byteLength": 96768, "name": "floatBufferViews", "target": 34963}, {"buffer": 0, "byteLength": 84096, "byteOffset": 96768, "byteStride": 8, "name": "floatBufferViews", "target": 34962}, {"buffer": 0, "byteLength": 252288, "byteOffset": 180864, "byteStride": 12, "name": "floatBufferViews", "target": 34962}], "buffers": [{"byteLength": 433152, "uri": "scene.bin"}], "images": [{"uri": "textures/material_0_baseColor.jpg"}], "materials": [{"doubleSided": true, "name": "material_0", "pbrMetallicRoughness": {"baseColorTexture": {"index": 0}, "metallicFactor": 0.0, "roughnessFactor": 0.6}}], "meshes": [{"name": "Object_0", "primitives": [{"attributes": {"NORMAL": 1, "POSITION": 0, "TEXCOORD_0": 2}, "indices": 3, "material": 0, "mode": 4}]}], "nodes": [{"children": [1], "matrix": [1.0, 0.0, 0.0, 0.0, 0.0, 2.220446049250313e-16, -1.0, 0.0, 0.0, 1.0, 2.220446049250313e-16, 0.0, 0.0, 0.0, 0.0, 1.0], "name": "Sketchfab_model"}, {"children": [2], "name": "iron_throne.mdl.cleaner"}, {"mesh": 0, "name": "Object_2"}], "samplers": [{"magFilter": 9729, "minFilter": 9987, "wrapS": 10497, "wrapT": 10497}], "scene": 0, "scenes": [{"name": "Sketchfab_Scene", "nodes": [0]}], "textures": [{"sampler": 0, "source": 0}]}